<svg width="180" height="52" viewBox="0 0 180 52" fill="none" xmlns="http://www.w3.org/2000/svg">
<rect width="180" height="52" rx="8" fill="#0B0F19"/>
<path d="M43.5694 25.8087C43.5333 21.899 46.8528 19.9968 47.0046 19.9083C45.1246 17.2359 42.2107 16.8707 41.1867 16.8416C38.7394 16.5905 36.3655 18.2694 35.1188 18.2694C33.8473 18.2694 31.9275 16.8659 29.8584 16.9071C27.1958 16.9472 24.705 18.4502 23.3389 20.7841C20.5195 25.5431 22.6222 32.5365 25.3233 36.3832C26.6745 38.2671 28.2534 40.3706 30.32 40.2966C32.3418 40.2153 33.097 39.0398 35.5369 39.0398C37.9543 39.0398 38.6635 40.2966 40.7712 40.2493C42.941 40.2153 44.3072 38.3569 45.6111 36.456C47.1725 34.2967 47.7996 32.1701 47.8245 32.061C47.7735 32.044 43.6104 30.4949 43.5694 25.8087Z" fill="white"/>
<path d="M39.588 14.3111C40.6754 12.9852 41.4194 11.1814 41.2129 9.35083C39.639 9.41876 37.6707 10.4123 36.5372 11.7091C35.5344 12.8518 34.6386 14.7248 34.87 16.4862C36.638 16.6148 38.4533 15.6164 39.588 14.3111Z" fill="white"/>
<path d="M72.7597 40.0262H69.9341L68.3864 35.2843H63.0065L61.5321 40.0262H58.7812L64.1114 23.8825H67.4035L72.7597 40.0262ZM67.9198 33.2948L66.5201 29.0794C66.372 28.6487 66.0946 27.6346 65.6852 26.0382H65.6355C65.4725 26.7248 65.21 27.7389 64.8492 29.0794L63.4743 33.2948H67.9198Z" fill="white"/>
<path d="M86.4669 34.0628C86.4669 36.0425 85.9182 37.6074 84.8209 38.7562C83.8379 39.7788 82.6174 40.2895 81.1605 40.2895C79.5878 40.2895 78.4581 39.7388 77.77 38.6373H77.7203V44.7694H75.0677V32.2177C75.0677 30.973 75.0341 29.6957 74.9694 28.3855H77.3022L77.4503 30.2306H77.5001C78.3847 28.8404 79.7271 28.1465 81.5287 28.1465C82.9372 28.1465 84.1129 28.6888 85.0535 29.7745C85.9966 30.8614 86.4669 32.2904 86.4669 34.0628ZM83.7645 34.1574C83.7645 33.0244 83.5033 32.0903 82.9782 31.3552C82.4046 30.5885 81.6345 30.2051 80.669 30.2051C80.0146 30.2051 79.4198 30.4186 78.8886 30.8396C78.3561 31.2642 78.0077 31.8185 77.8447 32.5052C77.7626 32.8254 77.7215 33.0874 77.7215 33.2937V35.2346C77.7215 36.0813 77.9878 36.7958 78.5203 37.3793C79.0528 37.9628 79.7446 38.254 80.5956 38.254C81.5947 38.254 82.3723 37.8779 82.9284 37.1282C83.4858 36.3773 83.7645 35.3874 83.7645 34.1574Z" fill="white"/>
<path d="M100.199 34.0628C100.199 36.0425 99.6503 37.6074 98.5517 38.7562C97.5701 39.7788 96.3495 40.2895 94.8926 40.2895C93.3199 40.2895 92.1902 39.7388 91.5034 38.6373H91.4536V44.7694H88.801V32.2177C88.801 30.973 88.7674 29.6957 88.7027 28.3855H91.0356L91.1837 30.2306H91.2334C92.1168 28.8404 93.4593 28.1465 95.2621 28.1465C96.6693 28.1465 97.845 28.6888 98.7881 29.7745C99.7275 30.8614 100.199 32.2904 100.199 34.0628ZM97.4967 34.1574C97.4967 33.0244 97.2341 32.0903 96.7091 31.3552C96.1355 30.5885 95.3679 30.2051 94.4011 30.2051C93.7454 30.2051 93.152 30.4186 92.6194 30.8396C92.0869 31.2642 91.7398 31.8185 91.5768 32.5052C91.4959 32.8254 91.4536 33.0874 91.4536 33.2937V35.2346C91.4536 36.0813 91.7199 36.7958 92.2499 37.3793C92.7824 37.9616 93.4742 38.254 94.3277 38.254C95.3268 38.254 96.1044 37.8779 96.6606 37.1282C97.218 36.3773 97.4967 35.3874 97.4967 34.1574Z" fill="white"/>
<path d="M115.552 35.499C115.552 36.8722 115.063 37.9895 114.082 38.852C113.003 39.7946 111.501 40.2652 109.572 40.2652C107.79 40.2652 106.361 39.9304 105.28 39.2596L105.895 37.1039C107.059 37.7906 108.337 38.1351 109.73 38.1351C110.729 38.1351 111.506 37.9143 112.065 37.4751C112.621 37.036 112.898 36.4465 112.898 35.7113C112.898 35.0563 112.67 34.5043 112.21 34.0567C111.754 33.6091 110.991 33.193 109.926 32.8084C107.027 31.7542 105.579 30.21 105.579 28.1793C105.579 26.8522 106.087 25.764 107.103 24.9173C108.116 24.0694 109.467 23.646 111.157 23.646C112.663 23.646 113.915 23.902 114.914 24.4127L114.251 26.521C113.318 26.0261 112.263 25.7786 111.082 25.7786C110.149 25.7786 109.42 26.003 108.897 26.4494C108.455 26.8485 108.234 27.335 108.234 27.9112C108.234 28.5493 108.487 29.077 108.994 29.4918C109.436 29.8752 110.238 30.2901 111.403 30.7377C112.828 31.2969 113.874 31.9508 114.547 32.7005C115.218 33.4477 115.552 34.383 115.552 35.499Z" fill="white"/>
<path d="M124.323 30.3264H121.399V35.9782C121.399 37.4157 121.914 38.1338 122.947 38.1338C123.421 38.1338 123.814 38.0938 124.125 38.0137L124.198 39.9777C123.676 40.1682 122.988 40.264 122.135 40.264C121.088 40.264 120.269 39.9523 119.678 39.3299C119.09 38.7064 118.793 37.6607 118.793 36.1917V30.324H117.052V28.3831H118.793V26.2517L121.399 25.485V28.3831H124.323V30.3264Z" fill="white"/>
<path d="M137.515 34.11C137.515 35.8993 136.99 37.3684 135.942 38.5172C134.843 39.6999 133.385 40.2895 131.567 40.2895C129.816 40.2895 128.421 39.723 127.381 38.59C126.341 37.4569 125.821 36.0267 125.821 34.3029C125.821 32.4991 126.356 31.0215 127.429 29.8727C128.501 28.7227 129.946 28.1477 131.764 28.1477C133.516 28.1477 134.926 28.7143 135.989 29.8485C137.007 30.9488 137.515 32.3693 137.515 34.11ZM134.763 34.1938C134.763 33.1202 134.527 32.1994 134.051 31.4316C133.495 30.5023 132.7 30.0389 131.67 30.0389C130.603 30.0389 129.793 30.5036 129.237 31.4316C128.761 32.2007 128.525 33.1359 128.525 34.2423C128.525 35.3159 128.761 36.2366 129.237 37.0033C129.811 37.9325 130.612 38.3959 131.646 38.3959C132.659 38.3959 133.454 37.9228 134.027 36.979C134.516 36.1966 134.763 35.2661 134.763 34.1938Z" fill="white"/>
<path d="M146.137 30.6601C145.874 30.6127 145.594 30.5885 145.301 30.5885C144.368 30.5885 143.646 30.9318 143.138 31.6196C142.697 32.2261 142.475 32.9928 142.475 33.9184V40.0263H139.824L139.849 32.0515C139.849 30.7098 139.815 29.4882 139.749 28.3867H142.06L142.157 30.614H142.23C142.51 29.8485 142.952 29.2323 143.556 28.7701C144.147 28.354 144.786 28.1465 145.474 28.1465C145.719 28.1465 145.94 28.1635 146.137 28.1939V30.6601Z" fill="white"/>
<path d="M158 33.6551C158 34.1185 157.969 34.5092 157.903 34.8282H149.945C149.977 35.9782 150.361 36.8577 151.1 37.4642C151.771 38.0065 152.638 38.2782 153.703 38.2782C154.881 38.2782 155.956 38.095 156.923 37.7275L157.338 39.5228C156.209 40.0032 154.875 40.2422 153.336 40.2422C151.484 40.2422 150.031 39.7109 148.974 38.6494C147.919 37.588 147.39 36.1626 147.39 34.3745C147.39 32.6192 147.881 31.1574 148.865 29.9916C149.896 28.747 151.288 28.1247 153.04 28.1247C154.76 28.1247 156.063 28.747 156.948 29.9916C157.648 30.9803 158 32.2031 158 33.6551ZM155.471 32.9843C155.488 32.2176 155.315 31.5553 154.956 30.9961C154.497 30.2767 153.791 29.9176 152.842 29.9176C151.975 29.9176 151.269 30.2682 150.73 30.9718C150.289 31.531 150.026 32.2019 149.945 32.9831H155.471V32.9843Z" fill="white"/>
</svg>
